<mxfile host="app.diagrams.net" modified="2024-06-14T03:05:36.381Z" agent="Mozilla/5.0 (Windows NT 10.0; Win64; x64) AppleWebKit/537.36 (KHTML, like Gecko) Chrome/125.0.0.0 Safari/537.36" version="24.5.4" etag="pA8RoK7fVfoMBrakZkIc" type="device">
  <diagram id="LyEMe64UmVPFXqEVOc0i" name="Page-1">
    <mxGraphModel dx="934" dy="485" grid="1" gridSize="10" guides="1" tooltips="1" connect="1" arrows="1" fold="1" page="1" pageScale="1" pageWidth="827" pageHeight="1169" math="0" shadow="0">
      <root>
        <mxCell id="0" />
        <mxCell id="1" parent="0" />
        <mxCell id="BX1JQhVSrLfDGsWymnuE-1" value="" style="whiteSpace=wrap;html=1;aspect=fixed;" vertex="1" parent="1">
          <mxGeometry x="130" y="145" width="600" height="600" as="geometry" />
        </mxCell>
        <mxCell id="BX1JQhVSrLfDGsWymnuE-2" value="arsip faktur" style="ellipse;whiteSpace=wrap;html=1;" vertex="1" parent="1">
          <mxGeometry x="320" y="480" width="80" height="40" as="geometry" />
        </mxCell>
        <mxCell id="BX1JQhVSrLfDGsWymnuE-28" style="edgeStyle=orthogonalEdgeStyle;rounded=0;orthogonalLoop=1;jettySize=auto;html=1;exitX=0.5;exitY=0.5;exitDx=0;exitDy=0;exitPerimeter=0;" edge="1" parent="1" source="BX1JQhVSrLfDGsWymnuE-3" target="BX1JQhVSrLfDGsWymnuE-13">
          <mxGeometry relative="1" as="geometry">
            <Array as="points">
              <mxPoint x="75" y="240" />
            </Array>
          </mxGeometry>
        </mxCell>
        <mxCell id="BX1JQhVSrLfDGsWymnuE-39" style="edgeStyle=orthogonalEdgeStyle;rounded=0;orthogonalLoop=1;jettySize=auto;html=1;exitX=0.5;exitY=0.5;exitDx=0;exitDy=0;exitPerimeter=0;entryX=0;entryY=0.5;entryDx=0;entryDy=0;" edge="1" parent="1" source="BX1JQhVSrLfDGsWymnuE-3" target="BX1JQhVSrLfDGsWymnuE-15">
          <mxGeometry relative="1" as="geometry">
            <Array as="points">
              <mxPoint x="90" y="390" />
              <mxPoint x="90" y="630" />
            </Array>
          </mxGeometry>
        </mxCell>
        <mxCell id="BX1JQhVSrLfDGsWymnuE-47" style="edgeStyle=orthogonalEdgeStyle;rounded=0;orthogonalLoop=1;jettySize=auto;html=1;exitX=0.5;exitY=0.5;exitDx=0;exitDy=0;exitPerimeter=0;" edge="1" parent="1" source="BX1JQhVSrLfDGsWymnuE-3" target="BX1JQhVSrLfDGsWymnuE-20">
          <mxGeometry relative="1" as="geometry">
            <Array as="points">
              <mxPoint x="75" y="710" />
            </Array>
          </mxGeometry>
        </mxCell>
        <mxCell id="BX1JQhVSrLfDGsWymnuE-3" value="Bagian Penjualan&lt;div&gt;&lt;br&gt;&lt;/div&gt;" style="shape=umlActor;verticalLabelPosition=bottom;verticalAlign=top;html=1;outlineConnect=0;" vertex="1" parent="1">
          <mxGeometry x="60" y="360" width="30" height="60" as="geometry" />
        </mxCell>
        <mxCell id="BX1JQhVSrLfDGsWymnuE-29" style="edgeStyle=orthogonalEdgeStyle;rounded=0;orthogonalLoop=1;jettySize=auto;html=1;exitX=0.5;exitY=0.5;exitDx=0;exitDy=0;exitPerimeter=0;entryX=1;entryY=1;entryDx=0;entryDy=0;" edge="1" parent="1" source="BX1JQhVSrLfDGsWymnuE-7" target="BX1JQhVSrLfDGsWymnuE-12">
          <mxGeometry relative="1" as="geometry">
            <Array as="points">
              <mxPoint x="790" y="310" />
              <mxPoint x="790" y="240" />
              <mxPoint x="672" y="240" />
            </Array>
          </mxGeometry>
        </mxCell>
        <mxCell id="BX1JQhVSrLfDGsWymnuE-38" style="edgeStyle=orthogonalEdgeStyle;rounded=0;orthogonalLoop=1;jettySize=auto;html=1;exitX=0;exitY=0.3333333333333333;exitDx=0;exitDy=0;exitPerimeter=0;" edge="1" parent="1" source="BX1JQhVSrLfDGsWymnuE-7" target="BX1JQhVSrLfDGsWymnuE-18">
          <mxGeometry relative="1" as="geometry">
            <Array as="points">
              <mxPoint x="797" y="480" />
            </Array>
          </mxGeometry>
        </mxCell>
        <mxCell id="BX1JQhVSrLfDGsWymnuE-7" value="&lt;div&gt;Pembeli&lt;/div&gt;&lt;div&gt;&lt;br&gt;&lt;/div&gt;" style="shape=umlActor;verticalLabelPosition=bottom;verticalAlign=top;html=1;outlineConnect=0;" vertex="1" parent="1">
          <mxGeometry x="760" y="290" width="30" height="60" as="geometry" />
        </mxCell>
        <mxCell id="BX1JQhVSrLfDGsWymnuE-9" value="arsip pesanan" style="ellipse;whiteSpace=wrap;html=1;" vertex="1" parent="1">
          <mxGeometry x="245" y="320" width="90" height="60" as="geometry" />
        </mxCell>
        <mxCell id="BX1JQhVSrLfDGsWymnuE-10" value="arsip surat jalan" style="ellipse;whiteSpace=wrap;html=1;" vertex="1" parent="1">
          <mxGeometry x="415" y="545" width="120" height="40" as="geometry" />
        </mxCell>
        <mxCell id="BX1JQhVSrLfDGsWymnuE-11" value="Sistem transaksi penjualan" style="text;html=1;align=center;verticalAlign=middle;whiteSpace=wrap;rounded=0;" vertex="1" parent="1">
          <mxGeometry x="290" y="140" width="220" height="30" as="geometry" />
        </mxCell>
        <mxCell id="BX1JQhVSrLfDGsWymnuE-12" value="surat pesanan" style="ellipse;whiteSpace=wrap;html=1;" vertex="1" parent="1">
          <mxGeometry x="570" y="200" width="120" height="80" as="geometry" />
        </mxCell>
        <mxCell id="BX1JQhVSrLfDGsWymnuE-13" value="pemesan barang" style="ellipse;whiteSpace=wrap;html=1;" vertex="1" parent="1">
          <mxGeometry x="230" y="200" width="120" height="80" as="geometry" />
        </mxCell>
        <mxCell id="BX1JQhVSrLfDGsWymnuE-14" value="faktur" style="ellipse;whiteSpace=wrap;html=1;" vertex="1" parent="1">
          <mxGeometry x="550" y="330" width="70" height="50" as="geometry" />
        </mxCell>
        <mxCell id="BX1JQhVSrLfDGsWymnuE-15" value="pendataan kwitansi" style="ellipse;whiteSpace=wrap;html=1;" vertex="1" parent="1">
          <mxGeometry x="440" y="600" width="70" height="60" as="geometry" />
        </mxCell>
        <mxCell id="BX1JQhVSrLfDGsWymnuE-16" value="surat jalan" style="ellipse;whiteSpace=wrap;html=1;" vertex="1" parent="1">
          <mxGeometry x="540" y="410" width="100" height="50" as="geometry" />
        </mxCell>
        <mxCell id="BX1JQhVSrLfDGsWymnuE-17" value="laporan barang&amp;nbsp;" style="ellipse;whiteSpace=wrap;html=1;" vertex="1" parent="1">
          <mxGeometry x="250" y="410" width="80" height="70" as="geometry" />
        </mxCell>
        <mxCell id="BX1JQhVSrLfDGsWymnuE-18" value="pembayaran" style="ellipse;whiteSpace=wrap;html=1;" vertex="1" parent="1">
          <mxGeometry x="550" y="470" width="110" height="60" as="geometry" />
        </mxCell>
        <mxCell id="BX1JQhVSrLfDGsWymnuE-19" value="arsip kwitansi" style="ellipse;whiteSpace=wrap;html=1;" vertex="1" parent="1">
          <mxGeometry x="540" y="610" width="80" height="60" as="geometry" />
        </mxCell>
        <mxCell id="BX1JQhVSrLfDGsWymnuE-20" value="laporan penjualan" style="ellipse;whiteSpace=wrap;html=1;" vertex="1" parent="1">
          <mxGeometry x="339" y="680" width="75" height="50" as="geometry" />
        </mxCell>
        <mxCell id="BX1JQhVSrLfDGsWymnuE-21" value="laporan pengiriman" style="ellipse;whiteSpace=wrap;html=1;" vertex="1" parent="1">
          <mxGeometry x="610" y="530" width="100" height="65" as="geometry" />
        </mxCell>
        <mxCell id="BX1JQhVSrLfDGsWymnuE-30" value="" style="endArrow=none;dashed=1;html=1;dashPattern=1 3;strokeWidth=2;rounded=0;exitX=1;exitY=0.5;exitDx=0;exitDy=0;" edge="1" parent="1" source="BX1JQhVSrLfDGsWymnuE-14" target="BX1JQhVSrLfDGsWymnuE-7">
          <mxGeometry width="50" height="50" relative="1" as="geometry">
            <mxPoint x="280" y="320" as="sourcePoint" />
            <mxPoint x="330" y="270" as="targetPoint" />
            <Array as="points">
              <mxPoint x="620" y="320" />
              <mxPoint x="650" y="320" />
            </Array>
          </mxGeometry>
        </mxCell>
        <mxCell id="BX1JQhVSrLfDGsWymnuE-31" value="" style="endArrow=none;dashed=1;html=1;dashPattern=1 3;strokeWidth=2;rounded=0;exitX=1;exitY=0.5;exitDx=0;exitDy=0;" edge="1" parent="1" source="BX1JQhVSrLfDGsWymnuE-16">
          <mxGeometry width="50" height="50" relative="1" as="geometry">
            <mxPoint x="280" y="320" as="sourcePoint" />
            <mxPoint x="775" y="320" as="targetPoint" />
          </mxGeometry>
        </mxCell>
        <mxCell id="BX1JQhVSrLfDGsWymnuE-32" value="" style="endArrow=none;dashed=1;html=1;rounded=0;exitX=0.5;exitY=0;exitDx=0;exitDy=0;entryX=0.5;entryY=1;entryDx=0;entryDy=0;" edge="1" parent="1" source="BX1JQhVSrLfDGsWymnuE-9" target="BX1JQhVSrLfDGsWymnuE-13">
          <mxGeometry width="50" height="50" relative="1" as="geometry">
            <mxPoint x="280" y="320" as="sourcePoint" />
            <mxPoint x="330" y="270" as="targetPoint" />
          </mxGeometry>
        </mxCell>
        <mxCell id="BX1JQhVSrLfDGsWymnuE-33" value="" style="endArrow=none;dashed=1;html=1;rounded=0;entryX=0.5;entryY=1;entryDx=0;entryDy=0;" edge="1" parent="1" source="BX1JQhVSrLfDGsWymnuE-17" target="BX1JQhVSrLfDGsWymnuE-9">
          <mxGeometry width="50" height="50" relative="1" as="geometry">
            <mxPoint x="280" y="320" as="sourcePoint" />
            <mxPoint x="330" y="270" as="targetPoint" />
          </mxGeometry>
        </mxCell>
        <mxCell id="BX1JQhVSrLfDGsWymnuE-34" value="" style="endArrow=none;dashed=1;html=1;rounded=0;entryX=0;entryY=1;entryDx=0;entryDy=0;exitX=1;exitY=0;exitDx=0;exitDy=0;" edge="1" parent="1" source="BX1JQhVSrLfDGsWymnuE-2" target="BX1JQhVSrLfDGsWymnuE-14">
          <mxGeometry width="50" height="50" relative="1" as="geometry">
            <mxPoint x="280" y="320" as="sourcePoint" />
            <mxPoint x="330" y="270" as="targetPoint" />
            <Array as="points">
              <mxPoint x="390" y="390" />
              <mxPoint x="530" y="390" />
              <mxPoint x="560" y="390" />
            </Array>
          </mxGeometry>
        </mxCell>
        <mxCell id="BX1JQhVSrLfDGsWymnuE-35" value="" style="endArrow=none;dashed=1;html=1;rounded=0;entryX=0;entryY=0.5;entryDx=0;entryDy=0;" edge="1" parent="1" source="BX1JQhVSrLfDGsWymnuE-10" target="BX1JQhVSrLfDGsWymnuE-16">
          <mxGeometry width="50" height="50" relative="1" as="geometry">
            <mxPoint x="280" y="320" as="sourcePoint" />
            <mxPoint x="330" y="270" as="targetPoint" />
            <Array as="points">
              <mxPoint x="475" y="480" />
              <mxPoint x="475" y="435" />
            </Array>
          </mxGeometry>
        </mxCell>
        <mxCell id="BX1JQhVSrLfDGsWymnuE-36" value="" style="endArrow=none;dashed=1;html=1;rounded=0;exitX=1;exitY=0.5;exitDx=0;exitDy=0;" edge="1" parent="1" source="BX1JQhVSrLfDGsWymnuE-9" target="BX1JQhVSrLfDGsWymnuE-14">
          <mxGeometry width="50" height="50" relative="1" as="geometry">
            <mxPoint x="280" y="320" as="sourcePoint" />
            <mxPoint x="330" y="270" as="targetPoint" />
          </mxGeometry>
        </mxCell>
        <mxCell id="BX1JQhVSrLfDGsWymnuE-37" value="" style="endArrow=none;dashed=1;html=1;rounded=0;entryX=0;entryY=0;entryDx=0;entryDy=0;exitX=1;exitY=0.5;exitDx=0;exitDy=0;" edge="1" parent="1" source="BX1JQhVSrLfDGsWymnuE-9" target="BX1JQhVSrLfDGsWymnuE-16">
          <mxGeometry width="50" height="50" relative="1" as="geometry">
            <mxPoint x="280" y="320" as="sourcePoint" />
            <mxPoint x="330" y="270" as="targetPoint" />
            <Array as="points">
              <mxPoint x="335" y="417" />
            </Array>
          </mxGeometry>
        </mxCell>
        <mxCell id="BX1JQhVSrLfDGsWymnuE-40" value="" style="endArrow=none;dashed=1;html=1;rounded=0;entryX=0;entryY=0.5;entryDx=0;entryDy=0;exitX=1;exitY=0.5;exitDx=0;exitDy=0;" edge="1" parent="1" source="BX1JQhVSrLfDGsWymnuE-13" target="BX1JQhVSrLfDGsWymnuE-12">
          <mxGeometry width="50" height="50" relative="1" as="geometry">
            <mxPoint x="400" y="350" as="sourcePoint" />
            <mxPoint x="450" y="300" as="targetPoint" />
          </mxGeometry>
        </mxCell>
        <mxCell id="BX1JQhVSrLfDGsWymnuE-41" value="" style="endArrow=none;dashed=1;html=1;rounded=0;entryX=0.5;entryY=1;entryDx=0;entryDy=0;exitX=1;exitY=0.5;exitDx=0;exitDy=0;" edge="1" parent="1" source="BX1JQhVSrLfDGsWymnuE-20" target="BX1JQhVSrLfDGsWymnuE-21">
          <mxGeometry width="50" height="50" relative="1" as="geometry">
            <mxPoint x="420" y="580" as="sourcePoint" />
            <mxPoint x="470" y="530" as="targetPoint" />
            <Array as="points">
              <mxPoint x="660" y="705" />
            </Array>
          </mxGeometry>
        </mxCell>
        <mxCell id="BX1JQhVSrLfDGsWymnuE-42" value="" style="endArrow=none;dashed=1;html=1;rounded=0;entryX=0;entryY=0.5;entryDx=0;entryDy=0;exitX=0.965;exitY=0.662;exitDx=0;exitDy=0;exitPerimeter=0;" edge="1" parent="1" source="BX1JQhVSrLfDGsWymnuE-15" target="BX1JQhVSrLfDGsWymnuE-19">
          <mxGeometry width="50" height="50" relative="1" as="geometry">
            <mxPoint x="510" y="660" as="sourcePoint" />
            <mxPoint x="560" y="610" as="targetPoint" />
          </mxGeometry>
        </mxCell>
        <mxCell id="BX1JQhVSrLfDGsWymnuE-48" value="" style="endArrow=none;dashed=1;html=1;rounded=0;exitX=0;exitY=0;exitDx=0;exitDy=0;" edge="1" parent="1" source="BX1JQhVSrLfDGsWymnuE-20" target="BX1JQhVSrLfDGsWymnuE-17">
          <mxGeometry width="50" height="50" relative="1" as="geometry">
            <mxPoint x="450" y="570" as="sourcePoint" />
            <mxPoint x="500" y="520" as="targetPoint" />
            <Array as="points">
              <mxPoint x="290" y="687" />
            </Array>
          </mxGeometry>
        </mxCell>
        <mxCell id="BX1JQhVSrLfDGsWymnuE-49" value="" style="endArrow=none;dashed=1;html=1;rounded=0;exitX=0.323;exitY=-0.084;exitDx=0;exitDy=0;exitPerimeter=0;" edge="1" parent="1" source="BX1JQhVSrLfDGsWymnuE-20" target="BX1JQhVSrLfDGsWymnuE-2">
          <mxGeometry width="50" height="50" relative="1" as="geometry">
            <mxPoint x="450" y="570" as="sourcePoint" />
            <mxPoint x="500" y="520" as="targetPoint" />
          </mxGeometry>
        </mxCell>
        <mxCell id="BX1JQhVSrLfDGsWymnuE-50" value="" style="endArrow=none;dashed=1;html=1;rounded=0;exitX=1;exitY=0.5;exitDx=0;exitDy=0;" edge="1" parent="1" source="BX1JQhVSrLfDGsWymnuE-10" target="BX1JQhVSrLfDGsWymnuE-21">
          <mxGeometry width="50" height="50" relative="1" as="geometry">
            <mxPoint x="450" y="580" as="sourcePoint" />
            <mxPoint x="500" y="530" as="targetPoint" />
          </mxGeometry>
        </mxCell>
        <mxCell id="BX1JQhVSrLfDGsWymnuE-51" value="" style="endArrow=none;dashed=1;html=1;rounded=0;exitX=1;exitY=0.5;exitDx=0;exitDy=0;" edge="1" parent="1" source="BX1JQhVSrLfDGsWymnuE-2" target="BX1JQhVSrLfDGsWymnuE-18">
          <mxGeometry width="50" height="50" relative="1" as="geometry">
            <mxPoint x="450" y="590" as="sourcePoint" />
            <mxPoint x="500" y="540" as="targetPoint" />
          </mxGeometry>
        </mxCell>
        <mxCell id="BX1JQhVSrLfDGsWymnuE-52" value="extend" style="text;html=1;align=center;verticalAlign=middle;whiteSpace=wrap;rounded=0;" vertex="1" parent="1">
          <mxGeometry x="430" y="210" width="60" height="30" as="geometry" />
        </mxCell>
        <mxCell id="BX1JQhVSrLfDGsWymnuE-53" value="include" style="text;html=1;align=center;verticalAlign=middle;whiteSpace=wrap;rounded=0;" vertex="1" parent="1">
          <mxGeometry x="230" y="280" width="60" height="30" as="geometry" />
        </mxCell>
        <mxCell id="BX1JQhVSrLfDGsWymnuE-54" value="extend" style="text;html=1;align=center;verticalAlign=middle;whiteSpace=wrap;rounded=0;" vertex="1" parent="1">
          <mxGeometry x="230" y="380" width="60" height="30" as="geometry" />
        </mxCell>
        <mxCell id="BX1JQhVSrLfDGsWymnuE-55" value="extend" style="text;html=1;align=center;verticalAlign=middle;whiteSpace=wrap;rounded=0;" vertex="1" parent="1">
          <mxGeometry x="245" y="590" width="60" height="30" as="geometry" />
        </mxCell>
        <mxCell id="BX1JQhVSrLfDGsWymnuE-56" value="extend" style="text;html=1;align=center;verticalAlign=middle;whiteSpace=wrap;rounded=0;" vertex="1" parent="1">
          <mxGeometry x="354" y="590" width="60" height="30" as="geometry" />
        </mxCell>
        <mxCell id="BX1JQhVSrLfDGsWymnuE-57" value="extend" style="text;html=1;align=center;verticalAlign=middle;whiteSpace=wrap;rounded=0;" vertex="1" parent="1">
          <mxGeometry x="510" y="700" width="60" height="30" as="geometry" />
        </mxCell>
        <mxCell id="BX1JQhVSrLfDGsWymnuE-58" value="include" style="text;html=1;align=center;verticalAlign=middle;whiteSpace=wrap;rounded=0;" vertex="1" parent="1">
          <mxGeometry x="490" y="650" width="60" height="30" as="geometry" />
        </mxCell>
        <mxCell id="BX1JQhVSrLfDGsWymnuE-59" value="extend" style="text;html=1;align=center;verticalAlign=middle;whiteSpace=wrap;rounded=0;" vertex="1" parent="1">
          <mxGeometry x="540" y="560" width="60" height="30" as="geometry" />
        </mxCell>
        <mxCell id="BX1JQhVSrLfDGsWymnuE-60" value="extend" style="text;html=1;align=center;verticalAlign=middle;whiteSpace=wrap;rounded=0;" vertex="1" parent="1">
          <mxGeometry x="470" y="440" width="60" height="30" as="geometry" />
        </mxCell>
        <mxCell id="BX1JQhVSrLfDGsWymnuE-61" value="extend" style="text;html=1;align=center;verticalAlign=middle;whiteSpace=wrap;rounded=0;" vertex="1" parent="1">
          <mxGeometry x="490" y="500" width="60" height="30" as="geometry" />
        </mxCell>
        <mxCell id="BX1JQhVSrLfDGsWymnuE-62" value="extend" style="text;html=1;align=center;verticalAlign=middle;whiteSpace=wrap;rounded=0;" vertex="1" parent="1">
          <mxGeometry x="340" y="440" width="60" height="30" as="geometry" />
        </mxCell>
        <mxCell id="BX1JQhVSrLfDGsWymnuE-64" value="include" style="text;html=1;align=center;verticalAlign=middle;whiteSpace=wrap;rounded=0;" vertex="1" parent="1">
          <mxGeometry x="413.5" y="320" width="60" height="30" as="geometry" />
        </mxCell>
        <mxCell id="BX1JQhVSrLfDGsWymnuE-66" value="include" style="text;html=1;align=center;verticalAlign=middle;whiteSpace=wrap;rounded=0;" vertex="1" parent="1">
          <mxGeometry x="430" y="390" width="60" height="30" as="geometry" />
        </mxCell>
        <mxCell id="BX1JQhVSrLfDGsWymnuE-70" value="" style="endArrow=classic;html=1;rounded=0;exitX=0.429;exitY=0.833;exitDx=0;exitDy=0;exitPerimeter=0;" edge="1" parent="1" source="BX1JQhVSrLfDGsWymnuE-15" target="BX1JQhVSrLfDGsWymnuE-7">
          <mxGeometry width="50" height="50" relative="1" as="geometry">
            <mxPoint x="430" y="660" as="sourcePoint" />
            <mxPoint x="800" y="510" as="targetPoint" />
            <Array as="points">
              <mxPoint x="470" y="770" />
              <mxPoint x="775" y="770" />
            </Array>
          </mxGeometry>
        </mxCell>
      </root>
    </mxGraphModel>
  </diagram>
</mxfile>
